<?xml version="1.0" encoding="UTF-8"?> <svg xmlns="http://www.w3.org/2000/svg" width="911" height="149" viewBox="0 0 911 149" fill="none"> <path d="M0.22 98.5801C0.49 97.8301 1 97.3401 1.9 97.3401C2.57 97.3401 3.1 97.6001 3.52 98.2501C3.8 98.6901 4.01 99.3201 4.16 100.22C4.46 102.11 4.95 103.86 5.66 105.47C6.36 107.05 7.28 108.48 8.47 109.72C10.71 111.89 13.84 113.45 17.4 114.5C21.56 115.73 26.32 116.26 30.98 116.26C46.83 116.26 57.12 111.64 63.49 104.05C69.86 96.4701 72.37 85.8801 72.63 73.9701C70.15 73.9801 54.87 74.1301 43.02 74.3001C36 74.4001 30.08 74.5101 28.5 74.6001C25.85 74.7701 24.22 75.3701 23.19 76.4301C22.16 77.5001 21.65 79.1301 21.31 81.3201C21.23 82.0301 21.06 82.5701 20.82 82.9601C20.44 83.5801 19.91 83.8701 19.29 83.8701C18.66 83.8701 18.12 83.5601 17.77 82.9501C17.54 82.5401 17.4 82.0001 17.4 81.3301C17.4 80.9001 17.49 79.6901 17.6 78.1601C17.78 75.5801 18.04 72.0601 18.04 69.9101C18.04 68.0801 17.94 66.6301 17.87 65.5501C17.82 64.8701 17.79 64.3201 17.79 63.9401C17.79 63.4201 17.85 62.9601 18.04 62.5701C18.33 62.0001 18.8 61.6601 19.56 61.6601C20.04 61.6601 20.5 61.8701 20.88 62.3001C21.14 62.5901 21.36 62.9901 21.53 63.4901V63.5101C21.89 64.6501 22.28 65.3601 23.09 65.7801C24.04 66.2701 25.6 66.5001 28.24 66.6201C30.66 66.7301 39.31 66.8201 48.33 66.8701C59.2 66.9301 70.63 66.9401 72.38 66.8801C72.18 61.0801 71.05 55.9801 69.3 51.6201C67.31 46.6601 64.53 42.6601 61.4 39.6601C58.99 37.3101 55.59 34.6201 50.82 32.5201C46.03 30.4101 39.85 28.8901 31.88 28.8901C26.37 28.8901 21.88 29.3601 18.23 30.2601C14.67 31.1401 11.91 32.4301 9.81 34.1001C8.42 35.3201 7.4 36.7801 6.7 38.7001C5.98 40.6901 5.58 43.1801 5.46 46.4201C5.46 47.2101 5.29 47.8801 5.01 48.3701C4.62 49.0801 4.01 49.4601 3.31 49.4601C2.58 49.4601 2.02 49.1101 1.65 48.3801C1.41 47.9101 1.28 47.2601 1.28 46.4201L1.3 44.7601C1.32 42.0201 1.36 37.3901 1.16 34.0501C1.06 32.5401 0.97 31.4501 0.9 30.6601C0.82 29.6401 0.77 29.1301 0.77 28.5301C0.77 27.9401 0.89 27.4101 1.24 26.9701C1.6 26.5201 2.13 26.2301 2.92 26.1401C5.5 25.8001 8 25.3301 10.92 24.7801L15.16 24.0001C17.98 23.4601 21.12 23.0601 24.18 22.7901C27.72 22.4801 31.2 22.3301 34.01 22.3301C43.41 22.3301 51.11 23.7801 57.47 26.2201C63.86 28.6701 68.9 32.1101 72.93 36.0801C77.52 40.6201 80.58 45.9701 82.59 51.3401C85.29 58.5801 86.06 65.8601 86.06 71.2101C86.06 78.0401 84.96 85.7701 81.87 93.2301C79.35 99.3201 75.5 105.23 69.85 110.3C64.61 114.96 58.94 118.36 52.23 120.6C45.55 122.83 37.86 123.89 28.55 123.89C24.45 123.89 20.03 123.58 16 123C12.21 122.45 8.75 121.66 6.21 120.64L6.18 120.62C4.89 120.05 4.08 119.53 3.5 118.85C2.9 118.15 2.6 117.37 2.31 116.28V116.26C1.76 113.99 1.25 111.09 0.86 108.37C0.34 104.72 0 101.38 0 100.26C0 99.6601 0.04 99.0701 0.22 98.5801Z" fill="#292D44"></path> <path d="M121.451 44.1391C120.861 45.5391 120.601 48.0291 120.601 52.3991L120.361 104.349L132.551 89.8791C147.181 72.4991 164.371 52.0891 171.511 43.9991C173.621 41.4991 175.171 39.7591 176.381 38.6291C177.761 37.3491 178.791 36.7891 179.761 36.7891C180.901 36.7891 181.681 37.1691 182.111 39.2091C182.411 40.6491 182.551 43.1891 182.551 47.6991C182.611 57.8391 182.671 67.7091 182.751 77.5691C182.831 87.4191 182.921 97.2591 183.051 107.349C183.111 111.529 183.351 114.159 184.001 115.739C184.531 117.049 185.431 117.589 186.891 117.789L186.991 117.809C187.191 117.859 187.851 117.949 188.661 118.029C189.541 118.119 190.611 118.219 191.521 118.289L191.631 118.309C192.531 118.469 193.061 118.709 193.391 118.989C193.911 119.429 193.991 119.869 193.991 120.309C193.991 121.099 193.661 121.579 192.931 121.869C192.501 122.039 191.951 122.079 191.201 122.079C188.871 122.079 183.951 121.939 180.041 121.829C177.571 121.759 175.521 121.699 174.701 121.699C173.401 121.699 171.971 121.779 170.421 121.859C168.501 121.959 166.401 122.079 164.291 122.079C163.361 122.079 162.771 121.979 162.381 121.779C161.681 121.429 161.501 120.939 161.501 120.309C161.501 119.719 161.591 119.259 162.261 118.859C162.641 118.629 163.221 118.489 164.211 118.419L164.791 118.339C165.541 118.239 166.421 118.129 167.061 117.949L167.121 117.939C168.381 117.659 169.121 116.519 169.561 114.609C170.081 112.389 170.211 109.239 170.271 105.319C170.491 95.4891 170.541 85.5491 170.591 75.4891C170.621 68.9091 170.661 62.2691 170.741 55.5891C164.281 63.2791 146.251 84.7091 132.501 100.929C124.021 110.929 117.181 118.919 115.761 120.389L115.731 120.419C114.401 121.689 113.411 122.429 112.671 122.859C111.801 123.369 111.181 123.489 110.721 123.489C109.691 123.489 109.001 123.149 108.581 121.899C108.301 121.069 108.191 119.729 108.191 117.529C108.191 113.059 108.221 106.339 108.251 99.2491C108.311 84.8691 108.371 68.7291 108.201 54.4391C108.141 48.6891 107.811 45.6691 107.091 44.0891C106.521 42.8491 105.521 42.6291 104.031 42.4791C103.441 42.4291 102.811 42.3891 102.231 42.3691C101.501 42.3291 100.831 42.2991 100.311 42.2291C99.7208 42.1491 99.2908 41.9591 98.9908 41.7191C98.4808 41.3291 98.3008 40.8291 98.3008 40.3391C98.3008 39.4191 98.8208 38.9091 99.7108 38.6391C100.261 38.4791 100.951 38.4391 101.721 38.4391C103.641 38.4391 107.111 38.5691 110.011 38.6791C112.011 38.7491 113.731 38.8191 114.541 38.8191C116.731 38.8191 118.921 38.7191 120.971 38.6191C122.861 38.5291 124.641 38.4391 126.091 38.4391C126.911 38.4391 127.541 38.5291 127.991 38.6991C128.761 38.9891 129.131 39.4991 129.131 40.2091C129.131 40.7491 128.981 41.2391 128.461 41.6491C128.101 41.9391 127.541 42.1391 126.701 42.2291L125.311 42.3391C124.801 42.3791 124.401 42.4091 123.811 42.4791C122.681 42.6791 121.921 43.0391 121.451 44.1391Z" fill="#292D44"></path> <path d="M223.979 70.5497V72.4597H269.439V70.5497C269.439 61.9097 269.439 56.8397 269.409 54.0097C269.379 50.8197 269.319 49.2397 269.189 47.5197C269.079 45.9797 268.909 44.8097 268.369 44.0497C267.849 43.3097 266.879 42.8097 265.099 42.4797C264.639 42.4197 264.069 42.3497 263.469 42.2997C262.989 42.2597 262.509 42.2397 262.059 42.2397C261.439 42.2397 260.879 42.0897 260.459 41.8497C259.869 41.5097 259.529 40.9797 259.529 40.3397C259.529 39.4897 259.899 38.9797 260.609 38.6797C261.069 38.4897 261.629 38.4397 262.319 38.4397C266.339 38.4397 271.739 38.6697 274.289 38.7697L275.649 38.8197L277.239 38.7597C279.709 38.6497 284.329 38.4397 287.079 38.4397C287.809 38.4397 288.419 38.4897 288.909 38.6597C289.689 38.9397 290.119 39.4597 290.119 40.3397C290.119 40.8597 289.859 41.4497 289.249 41.8397C288.879 42.0697 288.369 42.2397 287.719 42.2397C287.389 42.2397 287.029 42.2597 286.679 42.2997C286.229 42.3497 285.749 42.4097 285.349 42.4797H285.329C283.959 42.6797 283.199 43.1497 282.769 43.8897C282.279 44.7297 282.119 46.0097 281.999 47.6497C281.879 50.9497 281.879 53.9197 281.879 70.6897V89.7297C281.879 95.0597 281.879 99.8397 281.939 103.52C281.999 107.41 282.129 110.58 282.379 112.84C282.559 114.25 282.789 115.53 283.309 116.44C283.769 117.23 284.529 117.78 285.809 117.93H285.849C286.619 118.05 287.399 118.14 288.119 118.2C288.879 118.26 289.579 118.3 290.149 118.3C290.819 118.3 291.389 118.44 291.819 118.67C292.459 119.01 292.809 119.55 292.809 120.2C292.809 120.96 292.449 121.48 291.729 121.8C291.269 122 290.659 122.1 289.889 122.1C285.129 122.1 279.649 121.88 277.019 121.77L275.539 121.72L273.799 121.79C271.249 121.9 266.659 122.1 264.239 122.1C262.299 122.1 261.329 121.59 261.329 120.08C261.329 119.52 261.599 118.98 262.239 118.64C262.599 118.44 263.099 118.31 263.739 118.31C264.249 118.31 264.719 118.31 265.129 118.28C265.549 118.25 265.969 118.2 266.409 118.08L266.479 118.06C267.159 117.94 267.639 117.37 267.979 116.56C268.409 115.55 268.649 114.21 268.829 112.83V112.82C269.449 108.34 269.449 100.36 269.449 90.1097V79.0597H223.989V90.1097C223.989 95.3397 223.989 100.06 224.069 103.78C224.149 107.66 224.309 110.82 224.619 113.07C224.789 114.36 225.019 115.58 225.549 116.45C226.009 117.22 226.769 117.77 228.049 117.92H228.089C228.829 118.03 229.619 118.12 230.359 118.18C231.209 118.25 231.979 118.29 232.509 118.29C233.129 118.29 233.689 118.44 234.109 118.68C234.699 119.03 235.039 119.55 235.039 120.19C235.039 120.83 234.729 121.38 234.069 121.73C233.659 121.95 233.089 122.08 232.379 122.08C227.509 122.08 221.919 121.86 219.259 121.75L217.779 121.7L216.299 121.76C213.759 121.87 208.759 122.08 206.349 122.08C205.589 122.08 204.959 121.99 204.479 121.8C203.719 121.49 203.309 120.97 203.309 120.18C203.309 119.68 203.499 119.08 204.149 118.67C204.509 118.44 205.019 118.28 205.719 118.28C206.189 118.28 206.659 118.25 207.119 118.19C207.589 118.13 208.059 118.04 208.519 117.93H208.549C209.329 117.76 209.819 117.23 210.149 116.5C210.559 115.6 210.769 114.38 210.939 113.07V113.04C211.589 109.13 211.579 102.2 211.569 93.6297L211.549 70.9297C211.549 62.2897 211.549 57.1097 211.519 54.1997C211.489 50.9097 211.419 49.2397 211.299 47.5197C211.189 46.0297 210.939 44.7497 210.339 43.8597C209.789 43.0397 208.879 42.4997 207.369 42.3497C206.819 42.2897 206.239 42.2297 205.629 42.1797C205.069 42.1397 204.529 42.0997 204.039 42.0997C203.449 42.0997 202.949 41.9697 202.569 41.7597C201.959 41.4297 201.629 40.8997 201.629 40.3297C201.629 39.4697 201.999 38.9597 202.739 38.6597C203.209 38.4797 203.799 38.4297 204.539 38.4297C207.999 38.4297 211.849 38.5897 214.579 38.6997C215.999 38.7597 217.109 38.8097 217.749 38.8097L219.449 38.7397C221.999 38.6297 226.649 38.4297 229.169 38.4297C229.939 38.4297 230.549 38.5197 231.009 38.7297C231.729 39.0497 232.089 39.5697 232.089 40.3297C232.089 40.9597 231.789 41.4297 231.269 41.7497C230.889 41.9797 230.379 42.0997 229.809 42.0997C229.449 42.0997 229.179 42.0997 228.869 42.1297C228.509 42.1597 228.089 42.2197 227.449 42.3397H227.429C226.179 42.5397 225.409 43.0397 224.949 43.8297C224.429 44.7197 224.199 46.0097 224.089 47.6397C223.979 50.9497 223.979 53.7897 223.979 70.5497Z" fill="#292D44"></path> <path fill-rule="evenodd" clip-rule="evenodd" d="M556.2 34.5494C555.95 38.5494 555.95 42.1094 555.95 61.9194V84.2594C555.95 90.4694 555.95 96.1294 556.03 100.589C556.11 105.239 556.27 109.039 556.58 111.689V111.709C556.76 113.419 557.02 114.919 557.64 115.989C558.2 116.949 559.12 117.599 560.66 117.799H560.67C561.58 117.929 562.73 118.059 563.76 118.149C564.75 118.239 565.68 118.299 566.24 118.299C566.82 118.299 567.26 118.459 567.59 118.699C568.07 119.059 568.27 119.569 568.27 120.069C568.27 120.799 567.92 121.359 567.19 121.729C566.72 121.969 566.07 122.099 565.23 122.099C559.94 122.099 553.9 121.869 551.1 121.769L549.61 121.719H448.55L446.51 121.789C443.76 121.899 439 122.099 436.36 122.099C435.52 122.099 434.87 122.009 434.39 121.779C433.66 121.439 433.32 120.889 433.32 120.079C433.32 119.579 433.51 119.069 433.99 118.709C434.32 118.469 434.76 118.309 435.34 118.309C435.82 118.309 436.37 118.259 436.91 118.189C437.61 118.099 438.32 117.959 438.93 117.829L438.95 117.819C439.84 117.639 440.42 117.019 440.83 116.099C441.32 114.989 441.59 113.459 441.83 111.709C442.45 106.449 442.46 96.4394 442.46 84.2794V61.9394C442.46 51.7294 442.46 45.6994 442.43 42.3294C442.4 38.5094 442.33 36.6094 442.21 34.5694C442.1 32.5894 441.82 31.1594 441.14 30.1794C440.49 29.2494 439.38 28.6494 437.55 28.2594L437.52 28.2494C437.13 28.1494 436.51 28.0694 435.84 28.0094C434.98 27.9294 434.06 27.8994 433.44 27.8994C432.97 27.8994 432.48 27.7594 432.1 27.4794C431.69 27.1694 431.42 26.7194 431.42 26.1294C431.42 25.3194 431.76 24.7694 432.49 24.4294C432.97 24.1994 433.62 24.1094 434.46 24.1094C438.67 24.1094 444.32 24.3294 447.13 24.4394L448.8 24.4994L450.84 24.4294C453.59 24.3194 458.35 24.1194 460.99 24.1194C461.83 24.1194 462.48 24.2094 462.96 24.4394C463.69 24.7894 464.03 25.3294 464.03 26.1394C464.03 26.7294 463.76 27.1794 463.35 27.4894C462.97 27.7694 462.48 27.9094 462.01 27.9094C461.2 27.9094 460.47 28.0294 459.05 28.2694L459.02 28.2794C457.61 28.5394 456.71 29.0894 456.16 30.0094C455.54 31.0194 455.26 32.5294 455.15 34.5894C454.9 38.5894 454.9 42.1494 454.9 61.5794V81.3894C454.9 87.6694 454.94 96.5394 455.05 103.199C455.13 108.159 455.24 112.069 455.4 113.109C455.49 113.639 455.55 113.889 455.61 113.959C455.64 113.979 455.83 113.999 456.16 114.039C459.29 114.339 471.11 114.319 482.77 114.299L491.35 114.289C491.62 114.289 491.77 114.259 491.84 114.179C492 114.009 492.13 113.629 492.27 113.039C492.45 112.149 492.61 109.599 492.72 105.109C492.82 100.979 492.88 95.0694 492.88 87.1094L492.87 42.3594C492.86 38.5294 492.82 36.6294 492.76 34.6094C492.64 32.6294 492.37 31.1994 491.69 30.2194C491.04 29.2894 489.93 28.6894 488.1 28.2994L488.06 28.2894C487.63 28.1794 487.07 28.0994 486.49 28.0394C485.82 27.9694 485.09 27.9394 484.49 27.9394C483.94 27.9394 483.37 27.8294 482.93 27.6094C482.34 27.3094 481.95 26.8394 481.95 26.1694C481.95 25.3594 482.3 24.8094 483.02 24.4694C483.51 24.2394 484.15 24.1494 484.99 24.1494C489.21 24.1494 494.71 24.3694 497.45 24.4794L499.08 24.5394L501.17 24.4694C504 24.3594 508.88 24.1594 511.52 24.1594C512.36 24.1594 513.01 24.2494 513.49 24.4794C514.22 24.8294 514.56 25.3694 514.56 26.1794C514.56 26.7694 514.29 27.2194 513.88 27.5294C513.5 27.8094 513.01 27.9494 512.54 27.9494C511.73 27.9494 511 28.0694 509.58 28.3094L509.55 28.3194C508.14 28.5794 507.24 29.1594 506.68 30.0594C506.07 31.0594 505.79 32.4994 505.67 34.3694C505.55 38.2894 505.55 42.1494 505.55 61.9894V87.1294C505.55 97.2594 505.61 103.489 505.7 107.309C505.79 111.129 505.91 112.679 506.03 113.339C506.12 113.779 506.19 114.079 506.29 114.169C506.39 114.259 506.66 114.299 507.2 114.299L541.86 114.179C542.27 114.179 542.5 114.099 542.61 113.959C542.77 113.759 542.84 113.389 542.89 112.929V112.919C543.08 111.219 543.24 109.139 543.35 104.789C543.46 100.479 543.52 93.7694 543.52 82.6894V61.9994C543.52 51.7894 543.52 45.7594 543.49 42.3894C543.46 38.5694 543.39 36.6694 543.27 34.6294C543.15 32.6494 542.88 31.2194 542.2 30.2394C541.55 29.3094 540.44 28.7094 538.61 28.3194L538.58 28.3094C538.19 28.2094 537.57 28.1294 536.9 28.0694C536.04 27.9894 535.12 27.9594 534.5 27.9594C534.03 27.9594 533.53 27.8194 533.16 27.5394C532.75 27.2294 532.48 26.7794 532.48 26.1894C532.48 25.3794 532.83 24.8294 533.55 24.4894C534.04 24.2594 534.68 24.1694 535.52 24.1694C539.74 24.1694 545.24 24.3894 547.98 24.4994L549.61 24.5594L551.7 24.4894C554.53 24.3794 559.41 24.1794 562.05 24.1794C562.89 24.1794 563.54 24.2694 564.02 24.4994C564.75 24.8494 565.09 25.3894 565.09 26.1994C565.09 26.7894 564.82 27.2394 564.41 27.5494C564.03 27.8294 563.54 27.9694 563.07 27.9694C562.26 27.9694 561.53 28.0894 560.11 28.3294L560.08 28.3394C558.67 28.5994 557.77 29.1494 557.22 30.0694C556.6 30.9894 556.32 32.4994 556.2 34.5494Z" fill="#292D44"></path> <path d="M621.29 45.4608C619.84 45.4408 618.46 45.4208 616.93 45.4108V89.7208C616.93 94.7008 616.96 99.4108 617.05 103.341C617.14 107.361 617.3 110.751 617.55 113.081C617.73 114.501 617.88 115.611 618.29 116.371C618.66 117.041 619.32 117.511 620.59 117.811H620.6C621.19 117.961 621.93 118.061 622.66 118.141C623.69 118.251 624.73 118.291 625.31 118.291C625.94 118.291 626.46 118.411 626.85 118.611C627.51 118.941 627.85 119.481 627.85 120.061C627.85 120.711 627.63 121.241 627.06 121.641C626.64 121.931 626.04 122.091 625.19 122.091C620.19 122.091 614.44 121.851 611.93 121.751L610.72 121.711L608.92 121.781C606.33 121.891 601.74 122.091 599.42 122.091C598.57 122.091 597.96 122.001 597.52 121.791C596.81 121.461 596.51 120.941 596.51 120.201C596.51 119.691 596.77 119.091 597.38 118.701C597.75 118.471 598.26 118.301 598.91 118.301L600.27 118.291C600.67 118.281 601.08 118.241 601.58 118.181C602.39 118.051 602.86 117.731 603.16 117.121C603.56 116.281 603.77 114.901 604.01 112.851C604.51 108.351 604.51 99.2308 604.51 89.7308V45.4208L597.86 45.4308C595.03 45.4508 592.09 45.4808 589.55 45.5408C585.62 45.6008 583.25 45.9308 581.68 46.5508C580.25 47.1108 579.48 47.9708 578.7 49.1408C577.77 50.5908 577.28 51.8708 577.01 52.5908L576.88 52.9308C576.62 53.5308 576.37 53.9008 576.07 54.1508C575.66 54.4808 575.29 54.5608 574.81 54.5608C574.1 54.5608 573.65 54.2108 573.39 53.6408C573.22 53.2808 573.17 52.8508 573.17 52.4108C573.19 51.0408 574.64 44.5508 575.47 40.8108L575.74 39.6008C575.95 38.7408 576.19 38.1408 576.43 37.7408C576.83 37.0708 577.32 36.8008 577.86 36.8008C578.4 36.8008 579.14 37.0408 580.06 37.3308C581.09 37.6608 582.36 38.0708 583.56 38.2008C585.07 38.3708 586.48 38.5008 587.69 38.5908C589.97 38.7708 591.5 38.8208 591.58 38.8208H633.22C635.01 38.8208 636.85 38.7608 638.44 38.6508C639.97 38.5408 641.29 38.3908 642.13 38.2208L643.26 37.9508C644.09 37.7608 644.4 37.6808 644.77 37.6808C645.38 37.6808 645.84 37.9908 646.14 38.4508C646.4 38.8508 646.54 39.3808 646.54 39.8308C646.54 42.0008 646.43 46.4708 646.35 49.5808L646.28 52.7808C646.28 53.4708 646.13 54.0008 645.91 54.3808C645.52 55.0508 644.91 55.3108 644.39 55.3108C643.67 55.3108 643.16 55.0108 642.83 54.4108C642.6 53.9908 642.49 53.4508 642.49 52.7808L642.48 52.2908L642.37 51.1008C642.15 48.9308 641.72 47.5908 640.07 46.8208C638.14 45.9208 634.64 45.5908 628.39 45.5308C626.04 45.5408 623.58 45.5008 621.29 45.4608Z" fill="#292D44"></path> <path d="M664.239 101.29C664.289 98.4001 664.319 94.7202 664.319 89.7202V70.6802C664.319 62.1002 664.319 57.0302 664.289 54.1802C664.259 50.9702 664.189 49.3602 664.069 47.6402C663.959 46.0502 663.719 44.8702 663.129 44.0702C662.569 43.3002 661.619 42.7902 660.049 42.4702C659.689 42.4102 659.179 42.3502 658.619 42.3002C658.149 42.2602 657.649 42.2302 657.199 42.2302C656.619 42.2302 656.059 42.1002 655.639 41.9102C654.969 41.6002 654.539 41.0802 654.539 40.4602C654.539 39.6502 654.889 39.1102 655.579 38.7602C656.049 38.5302 656.679 38.4302 657.459 38.4302C658.529 38.4302 659.899 38.4802 661.709 38.5502C663.859 38.6302 666.669 38.7402 670.539 38.8102L682.709 38.7902C688.729 38.7802 694.989 38.7402 696.259 38.6802C697.489 38.6202 698.449 38.5602 699.239 38.4602C699.949 38.3802 700.479 38.2702 700.909 38.1102L701.439 37.9202C701.899 37.7502 702.129 37.6602 702.659 37.6602C703.139 37.6602 703.609 37.8902 703.909 38.4202C704.069 38.7102 704.179 39.0902 704.179 39.5602C704.179 39.9602 704.059 40.4402 703.899 41.1002C703.659 42.0502 703.319 43.4402 703.159 45.3602L702.779 51.8802C702.779 52.6102 702.679 53.2502 702.459 53.7202C702.139 54.4002 701.629 54.7902 700.879 54.7902C700.179 54.7902 699.669 54.4902 699.339 53.9302C699.099 53.5302 698.989 53.0102 698.989 52.3902C698.929 51.5302 698.809 50.8102 698.669 50.2002C698.529 49.6102 698.359 49.1202 698.189 48.7102L698.149 48.6002C697.849 47.6002 697.489 46.9202 696.639 46.5002C695.599 45.9802 693.839 45.6902 690.809 45.5102H690.789C690.209 45.4702 688.409 45.4202 686.269 45.3802C682.759 45.3202 678.109 45.2702 676.759 45.2602L676.769 74.3402C678.249 74.3302 683.479 74.2802 687.699 74.1902C690.319 74.1302 692.619 74.0602 693.569 73.9702H693.619C694.999 73.9102 696.129 73.7902 697.009 73.5302C697.759 73.3102 698.319 72.9802 698.679 72.4802C698.989 72.0202 699.289 71.6902 699.609 71.4602C700.029 71.1602 700.429 71.0502 700.899 71.0502C701.279 71.0502 701.679 71.1602 702.009 71.5402C702.259 71.8302 702.419 72.2302 702.419 72.8202C702.419 73.1602 702.329 73.7702 702.189 74.6702C702.009 75.8602 701.739 77.5902 701.529 79.6602C701.279 82.0302 701.189 83.9402 701.129 85.4302C701.099 86.2102 701.069 86.8802 701.029 87.3802V87.4302C700.949 88.0902 700.799 88.5802 700.579 88.9302C700.229 89.4802 699.759 89.7102 699.139 89.7102C698.309 89.7102 697.829 89.2602 697.579 88.5602C697.419 88.1302 697.369 87.6002 697.369 87.0502C697.369 86.6802 697.339 86.1702 697.269 85.6302C697.219 85.1802 697.129 84.7002 697.019 84.2502C696.819 83.5902 696.559 82.9102 695.939 82.4102C695.229 81.8302 694.009 81.3802 691.829 81.2102C690.599 81.1002 688.189 81.0002 685.639 80.9102C682.089 80.7902 678.159 80.7102 676.789 80.7002V89.8502L676.759 94.7802C676.729 99.5502 676.689 105.54 676.779 107.06C676.899 109.31 677.109 111 677.589 112.21C678.009 113.28 678.669 113.99 679.729 114.44L679.759 114.45C680.609 114.85 681.749 115.11 683.169 115.27C684.659 115.44 686.469 115.5 688.599 115.5L689.409 115.51C691.789 115.52 695.249 115.54 697.959 114.78C699.599 114.29 700.599 113.51 701.289 112.37C702.039 111.13 702.489 109.41 702.979 107.16C703.129 106.4 703.339 105.84 703.609 105.45C704.009 104.85 704.509 104.59 705.109 104.59C706.879 104.59 706.879 106.34 706.879 107.5C706.879 107.96 706.619 110.2 706.319 112.61C706.009 115.05 705.649 117.66 705.469 118.72V118.74C705.149 120.35 704.669 121.25 703.499 121.8C702.509 122.26 701.129 122.34 698.899 122.34C694.179 122.34 690.859 122.25 688.069 122.18C686.169 122.13 684.519 122.09 682.519 122.09L678.579 121.96C674.999 121.84 671.039 121.71 667.539 121.71C666.109 121.71 664.819 121.8 663.509 121.89C662.119 121.99 660.709 122.09 659.159 122.09C658.449 122.09 657.859 122 657.409 121.79C656.729 121.47 656.369 120.95 656.369 120.2C656.369 119.62 656.639 119.12 657.089 118.77C657.469 118.48 657.979 118.3 658.519 118.3C658.859 118.3 659.229 118.27 659.609 118.21C659.989 118.15 660.389 118.07 660.779 117.95L660.839 117.94C661.699 117.75 662.409 117.34 662.939 116.23C663.579 114.89 663.989 112.64 664.109 108.86C664.129 106.7 664.189 104.31 664.239 101.29ZM676.679 80.5802C676.689 80.5602 676.699 80.5502 676.679 80.5802V80.5802ZM676.679 80.5802L676.669 80.5902L676.679 80.5802Z" fill="#292D44"></path> <path d="M740.709 44.1391C740.119 45.5391 739.859 48.0291 739.859 52.3991L739.619 104.349L751.809 89.8791C766.439 72.4991 783.629 52.0891 790.769 43.9991C792.879 41.4991 794.429 39.7591 795.639 38.6291C797.019 37.3491 798.059 36.7891 799.019 36.7891C800.159 36.7891 800.939 37.1691 801.369 39.2091C801.669 40.6491 801.809 43.1891 801.809 47.6991C801.869 57.8391 801.929 67.7091 802.009 77.5691C802.089 87.4191 802.179 97.2591 802.309 107.349C802.369 111.529 802.609 114.159 803.259 115.739C803.789 117.049 804.689 117.589 806.149 117.789L806.249 117.809C806.449 117.859 807.109 117.949 807.919 118.029C808.799 118.119 809.869 118.219 810.779 118.289L810.889 118.309C811.789 118.469 812.319 118.709 812.649 118.989C813.169 119.429 813.249 119.869 813.249 120.309C813.249 121.099 812.919 121.579 812.189 121.869C811.759 122.039 811.209 122.079 810.459 122.079C808.129 122.079 803.209 121.939 799.299 121.829C796.829 121.759 794.779 121.699 793.959 121.699C792.659 121.699 791.229 121.779 789.679 121.859C787.759 121.959 785.659 122.079 783.549 122.079C782.619 122.079 782.039 121.979 781.639 121.779C780.939 121.429 780.759 120.939 780.759 120.309C780.759 119.719 780.849 119.259 781.519 118.859C781.899 118.629 782.479 118.489 783.469 118.419L784.049 118.339C784.799 118.239 785.679 118.129 786.319 117.949L786.379 117.939C787.639 117.659 788.369 116.519 788.819 114.609C789.339 112.389 789.469 109.239 789.529 105.319C789.749 95.4891 789.799 85.5491 789.849 75.4891C789.879 68.9091 789.919 62.2691 789.999 55.5891C783.539 63.2791 765.509 84.7091 751.759 100.929C743.279 110.929 736.439 118.919 735.019 120.389L734.989 120.419C733.659 121.689 732.669 122.429 731.929 122.859C731.059 123.369 730.439 123.489 729.979 123.489C728.949 123.489 728.259 123.149 727.839 121.899C727.559 121.069 727.449 119.729 727.449 117.529C727.449 113.059 727.479 106.339 727.509 99.2491C727.569 84.8691 727.629 68.7291 727.459 54.4391C727.399 48.6891 727.069 45.6691 726.349 44.0891C725.779 42.8491 724.779 42.6291 723.289 42.4791C722.699 42.4291 722.069 42.3891 721.489 42.3691C720.759 42.3291 720.089 42.2991 719.569 42.2291C718.979 42.1491 718.549 41.9591 718.249 41.7191C717.739 41.3291 717.559 40.8291 717.559 40.3391C717.559 39.4191 718.079 38.9091 718.969 38.6391C719.509 38.4791 720.209 38.4391 720.979 38.4391C722.899 38.4391 726.369 38.5691 729.269 38.6791C731.269 38.7491 732.989 38.8191 733.799 38.8191C735.989 38.8191 738.179 38.7191 740.229 38.6191C742.119 38.5291 743.899 38.4391 745.359 38.4391C746.179 38.4391 746.809 38.5291 747.259 38.6991C748.029 38.9891 748.399 39.4991 748.399 40.2091C748.399 40.7491 748.249 41.2391 747.729 41.6491C747.369 41.9391 746.819 42.1391 745.969 42.2291L744.579 42.3391C744.069 42.3791 743.669 42.4091 743.079 42.4791C741.929 42.6791 741.169 43.0391 740.709 44.1391Z" fill="#292D44"></path> <path fill-rule="evenodd" clip-rule="evenodd" d="M841.221 70.5497V72.4597H886.681V70.5497C886.681 61.9097 886.681 56.8397 886.651 54.0097C886.621 50.8197 886.561 49.2397 886.431 47.5197C886.321 45.9797 886.151 44.8097 885.611 44.0497C885.091 43.3097 884.121 42.8097 882.341 42.4797C881.881 42.4197 881.311 42.3497 880.711 42.2997C880.231 42.2597 879.751 42.2397 879.301 42.2397C878.681 42.2397 878.121 42.0897 877.701 41.8497C877.111 41.5097 876.771 40.9797 876.771 40.3397C876.771 39.4897 877.141 38.9797 877.851 38.6797C878.311 38.4897 878.871 38.4397 879.561 38.4397C883.581 38.4397 888.981 38.6697 891.531 38.7697L892.891 38.8197L894.481 38.7597C896.951 38.6497 901.571 38.4397 904.321 38.4397C905.051 38.4397 905.661 38.4897 906.151 38.6597C906.931 38.9397 907.361 39.4597 907.361 40.3397C907.361 40.8597 907.101 41.4497 906.491 41.8397C906.121 42.0697 905.611 42.2397 904.961 42.2397C904.631 42.2397 904.271 42.2597 903.921 42.2997C903.471 42.3497 902.991 42.4097 902.591 42.4797H902.571C901.201 42.6797 900.441 43.1497 900.011 43.8897C899.521 44.7297 899.361 46.0097 899.241 47.6497C899.121 50.9497 899.121 53.9197 899.121 70.6897V89.7297C899.121 95.0597 899.121 99.8397 899.181 103.52C899.241 107.41 899.371 110.58 899.621 112.84C899.801 114.25 900.031 115.53 900.551 116.44C901.011 117.23 901.771 117.78 903.051 117.93H903.091C903.861 118.05 904.641 118.14 905.361 118.2C906.121 118.26 906.821 118.3 907.391 118.3C908.061 118.3 908.631 118.44 909.061 118.67C909.701 119.01 910.051 119.55 910.051 120.2C910.051 120.96 909.691 121.48 908.971 121.8C908.511 122 907.901 122.1 907.131 122.1C902.371 122.1 896.891 121.88 894.261 121.77L892.781 121.72L891.041 121.79C888.491 121.9 883.901 122.1 881.481 122.1C879.541 122.1 878.571 121.59 878.571 120.08C878.571 119.52 878.841 118.98 879.481 118.64C879.841 118.44 880.341 118.31 880.981 118.31C881.491 118.31 881.961 118.31 882.371 118.28C882.791 118.25 883.211 118.2 883.651 118.08L883.721 118.06C884.401 117.94 884.881 117.37 885.221 116.56C885.651 115.55 885.891 114.21 886.071 112.83V112.82C886.691 108.34 886.691 100.36 886.691 90.1097V79.0597H841.231V90.1097C841.231 95.3397 841.231 100.06 841.311 103.78C841.391 107.66 841.551 110.82 841.861 113.07C842.031 114.36 842.261 115.58 842.791 116.45C843.251 117.22 844.011 117.77 845.291 117.92H845.331C846.071 118.03 846.861 118.12 847.601 118.18C848.451 118.25 849.221 118.29 849.751 118.29C850.371 118.29 850.931 118.44 851.351 118.68C851.941 119.03 852.281 119.55 852.281 120.19C852.281 120.83 851.971 121.38 851.311 121.73C850.901 121.95 850.331 122.08 849.621 122.08C844.751 122.08 839.161 121.86 836.501 121.75L835.021 121.7L833.541 121.76C831.001 121.87 826.001 122.08 823.591 122.08C822.831 122.08 822.201 121.99 821.721 121.8C820.961 121.49 820.551 120.97 820.551 120.18C820.551 119.68 820.741 119.08 821.391 118.67C821.751 118.44 822.261 118.28 822.961 118.28C823.431 118.28 823.901 118.25 824.361 118.19C824.831 118.13 825.301 118.04 825.761 117.93H825.791C826.571 117.76 827.061 117.23 827.391 116.5C827.801 115.6 828.011 114.38 828.181 113.07V113.04C828.831 109.13 828.821 102.2 828.811 93.6297L828.791 70.9297C828.791 62.2897 828.791 57.1097 828.761 54.1997C828.731 50.9097 828.661 49.2397 828.541 47.5197C828.431 46.0297 828.181 44.7497 827.581 43.8597C827.031 43.0397 826.121 42.4997 824.611 42.3497C824.061 42.2897 823.481 42.2297 822.871 42.1797C822.311 42.1397 821.771 42.0997 821.281 42.0997C820.691 42.0997 820.191 41.9697 819.811 41.7597C819.201 41.4297 818.871 40.8997 818.871 40.3297C818.871 39.4697 819.241 38.9597 819.981 38.6597C820.451 38.4797 821.041 38.4297 821.781 38.4297C825.241 38.4297 829.091 38.5897 831.821 38.6997C833.241 38.7597 834.351 38.8097 834.991 38.8097L836.691 38.7397C839.241 38.6297 843.891 38.4297 846.411 38.4297C847.181 38.4297 847.791 38.5197 848.251 38.7297C848.971 39.0497 849.331 39.5697 849.331 40.3297C849.331 40.9597 849.031 41.4297 848.511 41.7497C848.131 41.9797 847.621 42.0997 847.051 42.0997C846.691 42.0997 846.421 42.0997 846.111 42.1297C845.751 42.1597 845.331 42.2197 844.691 42.3397H844.671C843.421 42.5397 842.651 43.0397 842.191 43.8297C841.671 44.7197 841.441 46.0097 841.331 47.6397C841.221 50.9497 841.221 53.7897 841.221 70.5497Z" fill="#292D44"></path> <path d="M337.37 71.4095C336.71 72.1795 335.88 73.1395 334.89 74.2995C333.9 75.4495 332.94 76.7995 332 78.3395C331.06 79.8795 330.29 81.6695 329.69 83.6995C329.08 85.7395 328.78 87.9595 328.78 90.3895C328.78 93.9095 329.5 97.2395 330.93 100.37C332.36 103.51 334.31 106.26 336.79 108.62C339.27 110.99 342.18 112.86 345.54 114.23C348.9 115.61 352.55 116.29 356.52 116.29C359.38 116.29 362.27 115.82 365.19 114.89C368.11 113.95 368.46 113.78 370.89 111.91C364.29 103 358.87 94.1395 354.63 85.3295C350.39 76.5295 346.95 67.2795 344.31 57.5995C342.33 58.5895 342.11 58.8195 339.03 60.7495C335.95 62.6795 332.92 65.1195 329.95 68.0995C326.98 71.0695 324.42 74.5595 322.27 78.5795C320.13 82.5995 319.05 87.1895 319.05 92.3595C319.05 96.7595 319.82 100.5 321.36 103.58C322.9 106.66 324.74 109.25 326.89 111.34C329.04 113.43 331.21 115.05 333.41 116.21C335.61 117.37 337.43 118.22 338.86 118.77C335.67 118.66 332.26 118.14 328.63 117.2C325 116.26 321.62 114.78 318.48 112.74C315.34 110.7 312.73 108.04 310.64 104.73C308.55 101.43 307.5 97.3595 307.5 92.5195C307.5 88.5595 308.24 84.9295 309.73 81.6295C311.21 78.3295 313.14 75.3295 315.51 72.6295C317.88 69.9295 320.52 67.5395 323.43 65.4495C326.35 63.3595 329.23 61.5395 332.1 59.9995C334.96 58.4595 337.6 57.1895 340.02 56.1995C342.44 55.2095 342.06 55.6695 343.49 55.1195C342.94 52.5895 342.44 49.9995 342 47.3595C341.56 44.7195 341.34 42.0795 341.34 39.4395C341.34 32.3995 343.43 26.7295 347.61 22.4395C351.79 18.1495 359.66 14.7695 366.59 14.7695C368.9 14.7695 371.07 15.1595 373.11 15.9195C375.15 16.6895 376.93 17.7395 378.47 19.0595C380.01 20.3795 381.22 21.9195 382.1 23.6795C382.98 25.4395 383.42 27.2595 383.42 29.1295C383.42 32.9795 382.26 36.2295 379.95 38.8695C377.64 41.5095 374.97 43.7395 371.94 45.5595C368.91 47.3795 365.86 48.8295 362.78 49.9295C359.7 51.0295 357.44 51.8595 356.01 52.4095C356.78 55.1595 357.74 58.2995 358.9 61.8195C360.05 65.3395 361.24 68.5295 362.45 71.3895C364.76 68.8595 367.07 66.6895 369.38 64.8695C371.69 63.0495 374.33 61.5395 377.3 60.3295C380.27 59.1195 383.76 58.2095 387.78 57.6095C391.8 56.9995 396.67 56.6995 402.39 56.6995C404.26 56.6995 406.05 56.7795 407.76 56.9495C409.46 57.1195 411.25 57.1995 413.12 57.1995C415.32 57.1995 417.11 57.1395 418.48 57.0295C419.86 56.9195 421.09 56.6695 422.19 56.2895C423.29 55.9095 424.34 55.4095 425.33 54.8095C426.32 54.1995 427.47 53.4095 428.8 52.4195C427.04 55.1695 425.47 57.3395 424.1 58.9395C422.72 60.5295 421.07 61.7495 419.15 62.5695C417.22 63.3995 414.86 63.9395 412.05 64.2195C409.24 64.4895 405.53 64.6295 400.91 64.6295H398.76C398.76 69.6895 398.35 74.2895 397.52 78.4095C396.69 82.5395 395.57 86.2795 394.14 89.6295C392.71 92.9895 391.03 96.0695 389.11 98.8695C387.18 101.68 385.12 104.24 382.92 106.55C385.56 110.18 388.59 113.92 392 117.77C395.41 121.62 399.26 125.28 403.55 128.75C407.84 132.22 412.57 135.35 417.75 138.16C422.92 140.97 428.64 143.08 434.92 144.51C439 146.19 415.84 152.84 403.81 144C399.57 140.88 395.17 138.06 391.26 134.59C387.35 131.12 383.8 127.57 380.61 123.94C377.42 120.31 374.67 116.95 372.36 113.87C371.59 114.53 370.74 115.22 369.8 115.93C368.86 116.64 370.02 116.08 368.64 116.68C367.27 117.29 365.64 117.78 363.77 118.17C361.9 118.56 359.7 118.75 357.17 118.75C352.44 118.75 348.12 117.98 344.21 116.44C340.3 114.9 336.97 112.84 334.22 110.25C331.47 107.66 329.32 104.66 327.78 101.25C326.24 97.8395 325.47 94.2095 325.47 90.3595C325.47 87.1695 326.19 84.1195 327.62 81.1995C329.05 78.2795 330.81 75.5595 332.9 73.0295L337.37 71.4095ZM390.03 64.3095C386.4 64.3095 383.26 64.4995 380.62 64.8895C377.98 65.2695 375.64 65.8295 373.61 66.5395C371.57 67.2595 369.76 68.1895 368.16 69.3495C366.56 70.4995 364.94 71.8495 363.29 73.3895C365.49 78.3395 368.16 83.5695 371.3 89.0695C374.44 94.5695 377.77 99.6295 381.29 104.26C381.73 103.71 382.64 102.64 384.02 101.04C385.39 99.4395 386.82 97.3495 388.31 94.7695C389.8 92.1795 391.09 89.2095 392.19 85.8595C393.29 82.4995 393.84 78.8495 393.84 74.8795C393.84 73.1195 393.7 71.3595 393.43 69.5995C393.15 67.8395 392.74 66.0795 392.19 64.3195H390.03V64.3095ZM352.72 34.5995C352.72 38.3395 353.05 41.3695 353.71 43.6795C354.37 45.9895 354.98 48.0295 355.53 49.7895C357.07 49.0195 358.97 48.0295 361.22 46.8195C363.48 45.6095 365.62 44.0995 367.66 42.2795C369.7 40.4695 371.46 38.2895 372.94 35.7595C374.43 33.2295 375.17 30.2595 375.17 26.8495C375.17 24.4295 374.4 22.3695 372.86 20.6595C371.32 18.9495 369.01 18.0995 365.93 18.0995C364.39 18.0995 362.82 18.5095 361.23 19.3395C359.63 20.1695 358.2 21.3195 356.94 22.8095C355.67 24.2995 354.66 26.0295 353.89 28.0095C353.11 29.9695 352.72 32.1695 352.72 34.5995Z" fill="#9A4B56"></path> <path d="M214.05 4.75C211.72 8.52 209.91 11.27 207.46 13.25C204.98 15.26 201.93 16.43 197.21 16.97C192.41 17.52 187.54 17.47 182.7 17.41C177.25 17.35 171.85 17.28 166.69 18.11C163.12 18.69 160.44 19.46 158.03 20.68C155.62 21.9 153.43 23.61 150.84 26.08L145.43 31.23L149.29 24.83C159.76 7.43999 173.74 7.92999 187.26 8.39999C196.42 8.71999 205.37 9.03 212.58 3.42L216.98 0L214.05 4.75Z" fill="#292D44"></path> <path d="M825.81 4.75C823.48 8.52 821.67 11.27 819.22 13.25C816.74 15.26 813.69 16.43 808.97 16.97C804.17 17.52 799.3 17.47 794.46 17.41C789.01 17.35 783.61 17.28 778.45 18.11C774.88 18.69 772.2 19.46 769.79 20.68C767.38 21.9 765.19 23.61 762.6 26.08L757.18 31.23L761.04 24.83C771.51 7.43999 785.49 7.92999 799.01 8.39999C808.17 8.71999 817.12 9.03 824.33 3.42L828.73 0L825.81 4.75Z" fill="#292D44"></path> </svg> 